<svg width="212" height="52" viewBox="0 0 212 52" fill="none" xmlns="http://www.w3.org/2000/svg">
<path d="M211.205 17.596C212.087 16.9303 212.262 15.6761 211.596 14.7947C210.93 13.9132 209.676 13.7383 208.795 14.404L211.205 17.596ZM-2.3259 8.37502C-1.59157 9.20014 -0.32738 9.27375 0.497746 8.53942C1.32287 7.80509 1.39648 6.5409 0.662145 5.71577L-2.3259 8.37502ZM9.81876 14.6822C8.9807 13.9626 7.71802 14.0587 6.99848 14.8968C6.27894 15.7348 6.37502 16.9975 7.21307 17.717L9.81876 14.6822ZM17.8209 25.7767C18.7371 26.3936 19.98 26.1509 20.5969 25.2346C21.2138 24.3184 20.9711 23.0755 20.0548 22.4586L17.8209 25.7767ZM31.1078 29.0835C30.1329 28.5643 28.9217 28.9336 28.4024 29.9086C27.8832 30.8835 28.2525 32.0947 29.2275 32.614L31.1078 29.0835ZM41.2305 38.2989C42.2493 38.7257 43.4212 38.2458 43.848 37.227C44.2748 36.2083 43.7949 35.0364 42.7761 34.6096L41.2305 38.2989ZM54.9033 39.0872C53.852 38.7484 52.7251 39.326 52.3863 40.3773C52.0475 41.4286 52.6251 42.5555 53.6764 42.8944L54.9033 39.0872ZM66.4369 46.4491C67.5118 46.7035 68.5894 46.0383 68.8437 44.9634C69.0981 43.8885 68.4329 42.811 67.358 42.5566L66.4369 46.4491ZM80.0549 45.0544C78.9638 44.8821 77.9397 45.6269 77.7674 46.718C77.5951 47.809 78.3399 48.8332 79.431 49.0055L80.0549 45.0544ZM92.5791 50.5874C93.6798 50.6792 94.6465 49.8612 94.7382 48.7604C94.83 47.6597 94.012 46.693 92.9112 46.6013L92.5791 50.5874ZM105.852 47.2084C104.747 47.1965 103.842 48.0823 103.831 49.1868C103.819 50.2913 104.704 51.1963 105.809 51.2081L105.852 47.2084ZM119.04 50.8726C120.142 50.8047 120.981 49.856 120.913 48.7535C120.845 47.651 119.897 46.8123 118.794 46.8801L119.04 50.8726ZM131.68 45.6155C130.585 45.7635 129.818 46.7707 129.966 47.8654C130.114 48.96 131.121 49.7274 132.215 49.5795L131.68 45.6155ZM145.267 47.3221C146.348 47.0936 147.039 46.0322 146.81 44.9515C146.581 43.8709 145.52 43.1801 144.439 43.4087L145.267 47.3221ZM156.99 40.2555C155.93 40.5652 155.321 41.6757 155.631 42.736C155.941 43.7963 157.051 44.4048 158.111 44.0951L156.99 40.2555ZM170.674 39.8927C171.707 39.5017 172.228 38.3473 171.837 37.3143C171.446 36.2812 170.292 35.7607 169.259 36.1516L170.674 39.8927ZM181.17 31.0958C180.171 31.5676 179.744 32.7598 180.216 33.7585C180.687 34.7572 181.88 35.1843 182.878 34.7124L181.17 31.0958ZM194.619 28.5723C195.576 28.0209 195.905 26.798 195.353 25.8409C194.802 24.8838 193.579 24.5549 192.622 25.1062L194.619 28.5723ZM203.55 18.1965C202.641 18.8249 202.414 20.0707 203.043 20.9791C203.671 21.8875 204.917 22.1144 205.825 21.486L203.55 18.1965ZM-6.58872 3.2149C-5.24173 4.97635 -3.81942 6.69684 -2.3259 8.37502L0.662145 5.71577C-0.767211 4.10968 -2.12617 2.46563 -3.41128 0.7851L-6.58872 3.2149ZM7.21307 17.717C10.5313 20.566 14.0762 23.2555 17.8209 25.7767L20.0548 22.4586C16.433 20.0202 13.0129 17.4246 9.81876 14.6822L7.21307 17.717ZM29.2275 32.614C33.0811 34.6665 37.0893 36.564 41.2305 38.2989L42.7761 34.6096C38.745 32.9208 34.8488 31.076 31.1078 29.0835L29.2275 32.614ZM53.6764 42.8944C57.834 44.2343 62.0936 45.4214 66.4369 46.4491L67.358 42.5566C63.1159 41.5528 58.9585 40.394 54.9033 39.0872L53.6764 42.8944ZM79.431 49.0055C83.7572 49.6887 88.1454 50.218 92.5791 50.5874L92.9112 46.6013C88.5749 46.2399 84.2841 45.7223 80.0549 45.0544L79.431 49.0055ZM105.809 51.2081C110.196 51.2552 114.611 51.1452 119.04 50.8726L118.794 46.8801C114.462 47.1468 110.143 47.2544 105.852 47.2084L105.809 51.2081ZM132.215 49.5795C136.572 48.9908 140.927 48.2401 145.267 47.3221L144.439 43.4087C140.197 44.3059 135.939 45.0398 131.68 45.6155L132.215 49.5795ZM158.111 44.0951C162.331 42.8626 166.524 41.4635 170.674 39.8927L169.259 36.1516C165.206 37.6852 161.112 39.0516 156.99 40.2555L158.111 44.0951ZM182.878 34.7124C186.848 32.8367 190.766 30.7916 194.619 28.5723L192.622 25.1062C188.865 27.2706 185.043 29.2656 181.17 31.0958L182.878 34.7124ZM205.825 21.486C207.638 20.2321 209.432 18.9356 211.205 17.596L208.795 14.404C207.065 15.71 205.317 16.974 203.55 18.1965L205.825 21.486Z" fill="#0061AF"/>
</svg>
