<svg width="8" height="15" viewBox="0 0 8 15" fill="none" xmlns="http://www.w3.org/2000/svg">
<path d="M7.99898 7.54362C7.98946 7.82937 7.87439 8.10176 7.67543 8.3091L2.02751 14.1413C1.73581 14.4422 1.30442 14.5659 0.895824 14.466C0.487245 14.3659 0.163359 14.0575 0.0464929 13.6567C-0.0705502 13.2559 0.036972 12.8237 0.32867 12.5228L5.18992 7.5L0.328671 2.4772C0.0369708 2.17631 -0.0705497 1.74409 0.0464934 1.34329C0.163368 0.942484 0.487233 0.634129 0.895825 0.534023C1.3044 0.434108 1.73579 0.557781 2.02751 0.85867L7.67543 6.69091C7.89556 6.92003 8.01227 7.22793 7.99898 7.54395L7.99898 7.54362Z" fill="white"/>
</svg>
