<svg width="100" height="100" viewBox="0 0 100 100" fill="none" xmlns="http://www.w3.org/2000/svg">
<mask id="mask0_3107_5799" style="mask-type:alpha" maskUnits="userSpaceOnUse" x="0" y="0" width="100" height="100">
<rect width="100" height="100" fill="#D9D9D9"/>
</mask>
<g mask="url(#mask0_3107_5799)">
<path opacity="0.1294" d="M49.5536 90.1784C70.0177 90.1784 86.6071 80.6355 86.6071 68.8637C86.6071 57.0919 70.0177 47.549 49.5536 47.549C29.0894 47.549 12.5 57.0919 12.5 68.8637C12.5 80.6355 29.0894 90.1784 49.5536 90.1784Z" fill="#0061AF"/>
<path d="M16.6984 64.2917L15.3255 63.3961C14.8989 63.1105 14.6329 62.6442 14.6237 62.1276L14.0414 36.1657C14.0005 34.2243 14.9809 32.4066 16.6302 31.375L55.0146 7.44897C55.8146 6.9465 56.8129 6.87922 57.6683 7.26706L58.6591 7.71699" stroke="#0C63AD" stroke-width="1.5" stroke-miterlimit="10" stroke-linejoin="round"/>
<path d="M18.1724 66.1927L18.233 67.9751C18.263 68.8579 18.7571 69.6582 19.5303 70.0822L40.304 81.4664C42.6916 82.7777 45.5986 82.6873 47.9008 81.2416L85.1922 57.7863C85.9923 57.2838 86.4367 56.3765 86.3464 55.4374L86.1727 53.5172" fill="#0C63AD"/>
<path d="M18.1724 66.1927L18.233 67.9751C18.263 68.8579 18.7571 69.6582 19.5303 70.0822L40.304 81.4664C42.6916 82.7777 45.5986 82.6873 47.9008 81.2416L85.1922 57.7863C85.9923 57.2838 86.4367 56.3765 86.3464 55.4374L86.1727 53.5172" stroke="#0C63AD" stroke-width="1.5" stroke-miterlimit="10"/>
<path d="M15.8756 62.894L15.1565 36.5866C15.1045 34.8123 16.0065 33.139 17.509 32.2041L56.8827 7.70247C57.977 7.02324 59.4039 7.79188 59.4311 9.08336L59.9904 35.5963C60.0254 37.3628 59.1312 39.0192 57.6287 39.9541L18.4153 64.2668C17.3211 64.9461 15.9111 64.1852 15.8756 62.894Z" fill="#FDFDFD" stroke="#0C63AD" stroke-width="1.5" stroke-miterlimit="10"/>
<path d="M41.3414 79.8469L18.6061 66.9284C18.0534 66.6137 18.0434 65.8302 18.5824 65.4951L58.3591 40.8296C60.123 39.7358 62.33 39.6607 64.1641 40.6323L84.8565 51.5857C86.5547 52.4869 86.6446 54.8852 85.02 55.9077L47.3402 79.7097C45.52 80.8639 43.2121 80.9173 41.3414 79.8469Z" fill="#FDFDFD" stroke="#0C63AD" stroke-width="1.5" stroke-miterlimit="10"/>
<path d="M54.0738 46.0115L56.2844 44.5689L58.7616 45.8188L56.4367 47.332L54.0738 46.0115Z" fill="#0C63AD" stroke="#0C63AD" stroke-miterlimit="10" stroke-linejoin="round"/>
<path d="M57.7883 43.6756L59.999 42.233L62.4762 43.4829L60.1512 44.9961L57.7883 43.6756Z" fill="#0C63AD" stroke="#0C63AD" stroke-miterlimit="10" stroke-linejoin="round"/>
<path d="M50.3184 48.3487L52.529 46.9061L55.0062 48.156L52.6813 49.6692L50.3184 48.3487Z" fill="#0C63AD" stroke="#0C63AD" stroke-miterlimit="10" stroke-linejoin="round"/>
<path d="M46.5664 50.8108L48.777 49.3682L51.2543 50.6181L48.9293 52.1313L46.5664 50.8108Z" fill="#0C63AD" stroke="#0C63AD" stroke-miterlimit="10" stroke-linejoin="round"/>
<path d="M42.6883 53.2357L44.8989 51.7931L47.3761 53.043L45.0512 54.5562L42.6883 53.2357Z" fill="#0C63AD" stroke="#0C63AD" stroke-miterlimit="10" stroke-linejoin="round"/>
<path d="M38.8499 55.6176L41.0605 54.175L43.5377 55.4249L41.2128 56.9381L38.8499 55.6176Z" fill="#0C63AD" stroke="#0C63AD" stroke-miterlimit="10" stroke-linejoin="round"/>
<path d="M35.1748 57.8687L37.3854 56.4261L39.8627 57.676L37.5377 59.1892L35.1748 57.8687Z" fill="#0C63AD" stroke="#0C63AD" stroke-miterlimit="10" stroke-linejoin="round"/>
<path d="M56.4459 49.0494L58.6479 47.5987L61.1254 48.857L58.8004 50.3702L56.4459 49.0494Z" fill="#0C63AD" stroke="#0C63AD" stroke-miterlimit="10" stroke-linejoin="round"/>
<path d="M61.3318 50.5259L63.5341 49.0836L66.0116 50.3418L63.6864 51.8467L61.3318 50.5259Z" fill="#0C63AD" stroke="#0C63AD" stroke-miterlimit="10" stroke-linejoin="round"/>
<path d="M63.7793 53.6112L65.9816 52.1689L68.4591 53.4272L66.1339 54.932L63.7793 53.6112Z" fill="#0C63AD" stroke="#0C63AD" stroke-miterlimit="10" stroke-linejoin="round"/>
<path d="M65.0398 57.3289L69.0407 54.8332L71.5299 56.1911L67.4027 58.6494L65.0398 57.3289Z" fill="#0C63AD" stroke="#0C63AD" stroke-miterlimit="10" stroke-linejoin="round"/>
<path d="M70.2001 54.0933L75.7229 50.7455L78.2392 51.919L72.563 55.4138L70.2001 54.0933Z" fill="#0C63AD" stroke="#0C63AD" stroke-miterlimit="10" stroke-linejoin="round"/>
<path d="M60.302 55.814L62.5043 54.3717L64.9818 55.6299L62.6566 57.1348L60.302 55.814Z" fill="#0C63AD" stroke="#0C63AD" stroke-miterlimit="10" stroke-linejoin="round"/>
<path d="M56.7515 58.0607L58.9538 56.6184L61.4313 57.8766L59.1061 59.3815L56.7515 58.0607Z" fill="#0C63AD" stroke="#0C63AD" stroke-miterlimit="10" stroke-linejoin="round"/>
<path d="M53.033 60.2635L55.235 58.8129L57.7125 60.0711L55.3876 61.5843L53.033 60.2635Z" fill="#0C63AD" stroke="#0C63AD" stroke-miterlimit="10" stroke-linejoin="round"/>
<path d="M49.4835 62.5519L51.6855 61.1012L54.163 62.3595L51.838 63.8727L49.4835 62.5519Z" fill="#0C63AD" stroke="#0C63AD" stroke-miterlimit="10" stroke-linejoin="round"/>
<path d="M45.9329 64.7988L48.1349 63.3482L50.6124 64.6064L48.2875 66.1196L45.9329 64.7988Z" fill="#0C63AD" stroke="#0C63AD" stroke-miterlimit="10" stroke-linejoin="round"/>
<path d="M42.4292 66.9607L44.6315 65.5184L47.1087 66.7683L44.7838 68.2815L42.4292 66.9607Z" fill="#0C63AD" stroke="#0C63AD" stroke-miterlimit="10" stroke-linejoin="round"/>
<path d="M45.1466 69.8785L49.1966 67.3561L51.8367 68.4921L47.5095 71.199L45.1466 69.8785Z" fill="#0C63AD" stroke="#0C63AD" stroke-miterlimit="10" stroke-linejoin="round"/>
<path d="M50.5122 66.3275L63.6815 58.0837L66.1799 59.4663L52.9529 67.7287L50.5122 66.3275Z" fill="#0C63AD" stroke="#0C63AD" stroke-miterlimit="10" stroke-linejoin="round"/>
<path d="M55.5019 67.9007L66.0728 61.2211L70.0358 63.2543L59.5017 70.0328L55.5019 67.9007Z" fill="#0C63AD" stroke="#0C63AD" stroke-miterlimit="10" stroke-linejoin="round"/>
<path d="M57.8457 52.7206L60.0563 51.278L62.5336 52.5279L60.2086 54.0411L57.8457 52.7206Z" fill="#0C63AD" stroke="#0C63AD" stroke-miterlimit="10" stroke-linejoin="round"/>
<path d="M54.3772 54.9231L56.5878 53.4805L59.0651 54.7304L56.7401 56.2436L54.3772 54.9231Z" fill="#0C63AD" stroke="#0C63AD" stroke-miterlimit="10" stroke-linejoin="round"/>
<path d="M50.7825 57.1213L52.9929 55.6704L55.4704 56.9286L53.1454 58.4418L50.7825 57.1213Z" fill="#0C63AD" stroke="#0C63AD" stroke-miterlimit="10" stroke-linejoin="round"/>
<path d="M47.2364 59.4931L49.4467 58.0422L51.9242 59.3004L49.5993 60.8136L47.2364 59.4931Z" fill="#0C63AD" stroke="#0C63AD" stroke-miterlimit="10" stroke-linejoin="round"/>
<path d="M43.578 61.7438L45.78 60.2931L48.2575 61.5514L45.9408 63.0643L43.578 61.7438Z" fill="#0C63AD" stroke="#0C63AD" stroke-miterlimit="10" stroke-linejoin="round"/>
<path d="M39.9407 63.9103L42.143 62.468L44.6205 63.7262L42.3036 65.2308L39.9407 63.9103Z" fill="#0C63AD" stroke="#0C63AD" stroke-miterlimit="10" stroke-linejoin="round"/>
<path d="M36.5481 66.135L38.7504 64.6927L41.2362 65.9507L38.911 67.4555L36.5481 66.135Z" fill="#0C63AD" stroke="#0C63AD" stroke-miterlimit="10" stroke-linejoin="round"/>
<path d="M30.1888 70.1451L34.9941 67.0301L37.48 68.2881L32.7114 71.5019L30.1888 70.1451Z" fill="#0C63AD" stroke="#0C63AD" stroke-miterlimit="10" stroke-linejoin="round"/>
<path d="M34.2723 72.291L40.9076 67.8213L43.6917 69.2693L36.8031 73.6475L34.2723 72.291Z" fill="#0C63AD" stroke="#0C63AD" stroke-miterlimit="10" stroke-linejoin="round"/>
<path d="M37.6884 74.4345L43.7592 70.526L46.5352 71.9826L40.4874 76.0737L37.6884 74.4345Z" fill="#0C63AD" stroke="#0C63AD" stroke-miterlimit="10" stroke-linejoin="round"/>
<path d="M59.9946 46.7607L64.117 44.1609L66.5543 45.4622L62.3492 48.0815L59.9946 46.7607Z" fill="#0C63AD" stroke="#0C63AD" stroke-miterlimit="10" stroke-linejoin="round"/>
<path d="M52.7313 51.3853L54.9333 49.9346L57.4108 51.1928L55.0858 52.706L52.7313 51.3853Z" fill="#0C63AD" stroke="#0C63AD" stroke-miterlimit="10" stroke-linejoin="round"/>
<path d="M49.1834 53.7153L51.3854 52.2646L53.8629 53.5229L51.538 55.036L49.1834 53.7153Z" fill="#0C63AD" stroke="#0C63AD" stroke-miterlimit="10" stroke-linejoin="round"/>
<path d="M45.7217 55.901L47.9323 54.4584L50.4098 55.7166L48.0846 57.2215L45.7217 55.901Z" fill="#0C63AD" stroke="#0C63AD" stroke-miterlimit="10" stroke-linejoin="round"/>
<path d="M41.7508 58.2872L43.953 56.8449L46.4306 58.1031L44.1053 59.608L41.7508 58.2872Z" fill="#0C63AD" stroke="#0C63AD" stroke-miterlimit="10" stroke-linejoin="round"/>
<path d="M38.25 60.5324L40.4523 59.0901L42.9298 60.3484L40.6046 61.8532L38.25 60.5324Z" fill="#0C63AD" stroke="#0C63AD" stroke-miterlimit="10" stroke-linejoin="round"/>
<path d="M34.6412 62.5394L36.8434 61.0971L39.3207 62.347L36.9957 63.8602L34.6412 62.5394Z" fill="#0C63AD" stroke="#0C63AD" stroke-miterlimit="10" stroke-linejoin="round"/>
<path d="M26.1617 68.2058L33.1801 63.7231L35.6573 64.973L28.68 69.4376L26.1617 68.2058Z" fill="#0C63AD" stroke="#0C63AD" stroke-miterlimit="10" stroke-linejoin="round"/>
<path d="M31.3792 60.2907L33.5898 58.8481L36.067 60.098L33.7421 61.6112L31.3792 60.2907Z" fill="#0C63AD" stroke="#0C63AD" stroke-miterlimit="10" stroke-linejoin="round"/>
<path d="M27.5872 62.7792L29.7978 61.3366L32.275 62.5865L29.9501 64.0996L27.5872 62.7792Z" fill="#0C63AD" stroke="#0C63AD" stroke-miterlimit="10" stroke-linejoin="round"/>
<path d="M22.2727 65.8948L24.4833 64.4522L26.9609 65.7105L24.6356 67.2153L22.2727 65.8948Z" fill="#0C63AD" stroke="#0C63AD" stroke-miterlimit="10" stroke-linejoin="round"/>
<path d="M69.7777 52.9737L66.7811 51.4079L68.2469 50.3742L64.5104 48.3833L68.2265 46.3393L74.9041 49.7394L69.7777 52.9737Z" fill="#0C63AD" stroke="#0C63AD" stroke-miterlimit="10" stroke-linejoin="round"/>
<path d="M49.6886 30.4603L27.6892 42.6662L28.965 54.549L50.8347 41.1394L49.6886 30.4603Z" fill="#0E62AD"/>
<path d="M43.2753 26.3559C43.1833 25.5235 44.1313 25.3239 44.4261 25.3772L44.36 23.9506C43.3851 23.9242 41.9617 25.0121 42.1868 27.0935C42.3914 29.1672 44.1468 27.957 44.2496 28.9345C44.3559 29.9574 42.9075 30.172 42.5646 30.0125L42.5549 31.4988C43.685 31.7246 45.6108 30.5121 45.3102 28.2261C45.0636 25.9912 43.3741 27.2791 43.2753 26.3559ZM40.9531 28.3056C40.7562 26.4684 39.2558 27.1969 39.4648 29.0606L40.9531 28.3056ZM39.612 30.5001C39.8713 32.0961 41.3653 31.0126 41.9761 30.325L42.2849 31.6443C40.8642 33.443 38.7121 33.9048 38.3498 30.52C37.8638 26.0132 41.6587 23.6377 42.1576 28.3168C42.1878 28.5882 42.1987 28.8701 42.1997 29.1526L39.612 30.5001ZM44.619 25.2733L45.1796 24.99L45.4733 27.7231C45.6306 29.1619 45.953 30.1248 46.8794 29.635C47.1401 29.4992 47.3841 29.2734 47.6134 28.9847L47.45 27.4643C46.9228 27.9277 46.6569 28.1276 46.5231 26.8696L45.9255 21.2673L44.8414 21.795L45.0377 23.6231L44.5642 23.8641L44.619 25.2733ZM46.4458 24.35L47.0743 24.0348L47.2152 23.2325L46.9225 22.6686L46.284 22.9844L46.4458 24.35ZM31.8961 37.4652L32.2313 29.9781L33.2769 36.8814L34.4733 36.246L33.1489 27.4836L31.2615 28.4018L30.9771 34.9559L29.374 29.3201L27.4187 30.2701L28.0185 39.673L29.2727 39.0065L28.797 31.6735L30.6505 38.113L31.8961 37.4652Z" fill="#0E62AD"/>
<path d="M36.7908 30.4595C36.5918 28.5951 35.0622 29.3346 35.2838 31.234L36.7908 30.4595ZM35.4325 32.6916C35.693 34.3058 37.2163 33.2112 37.8364 32.5138L38.1566 33.8506C36.7073 35.6695 34.5266 36.1514 34.1609 32.7213C33.6708 28.16 37.523 25.7442 38.0358 30.4771C38.0667 30.7576 38.0777 31.0395 38.0787 31.322L35.4325 32.6916Z" fill="#E40139"/>
<path d="M47.27 20.5947L48.3089 22.5583L47.7729 25.3282L46.9808 25.7363L47.5161 22.9573L46.4666 20.9852L47.27 20.5947Z" fill="#E40139"/>
<path d="M34.0219 42.7384L34.5381 47.5166L33.8758 47.916L33.4557 44.0246L32.1283 44.7872L32.5505 48.7058L31.8689 49.1156L31.3479 44.2739L34.0219 42.7384Z" fill="white"/>
<path d="M34.8018 44.8284C34.6459 43.4078 35.2013 41.9764 36.1064 41.4697C37.0015 40.9637 37.7621 41.615 37.9067 43.0182C38.0613 44.4207 37.5145 45.8333 36.6314 46.3658C35.7377 46.89 34.9471 46.2406 34.8018 44.8284ZM37.243 43.3995C37.1462 42.5036 36.7053 42.1044 36.1959 42.4026C35.6859 42.6916 35.3674 43.5331 35.4648 44.4381C35.5623 45.343 36.0126 45.7324 36.5219 45.4343C37.0306 45.1271 37.3398 44.2954 37.243 43.3995Z" fill="white"/>
<path d="M41.7581 38.3147L42.2515 42.9213L38.6499 45.0652L38.1504 40.377L38.7855 40.0158L39.1882 43.8081L40.0527 43.295L39.6507 39.5118L40.2758 39.1513L40.6764 42.9164L41.5316 42.4131L41.1316 38.657L41.7581 38.3147Z" fill="white"/>
<path d="M44.5343 37.6382L43.6878 38.1227L44.0837 41.8243L43.4786 42.1835L43.0813 38.4637L42.2347 38.9483L42.14 38.0796L44.4395 36.7694L44.5343 37.6382Z" fill="white"/>
<path d="M46.8253 39.1721L45.6343 39.8801L45.5064 40.9914L44.892 41.3603L45.567 36.1476L46.1536 35.8079L47.7827 39.6373L47.1682 40.0061L46.8253 39.1721ZM46.5537 38.4883L45.9612 36.9964L45.7364 38.9618L46.5537 38.4883Z" fill="white"/>
<circle cx="61.4911" cy="9.09816" r="9.56263" fill="#0062AD" stroke="white" stroke-width="1.5"/>
<path d="M57.3171 9.09789L60.4093 12.3449L65.6659 5.85138" stroke="white" stroke-width="2" stroke-miterlimit="10" stroke-linecap="round" stroke-linejoin="round"/>
</g>
</svg>
