<svg width="81" height="86" viewBox="0 0 81 86" fill="none" xmlns="http://www.w3.org/2000/svg">
<g clip-path="url(#clip0_5496_10191)">
<path opacity="0.13" d="M43.3 85.9301C63.76 85.9301 80.35 76.3901 80.35 64.6201C80.35 52.8501 63.76 43.3101 43.3 43.3101C22.84 43.3101 6.25 52.8401 6.25 64.6101C6.25 76.3801 22.84 85.9201 43.3 85.9201V85.9301Z" fill="#0061AF"/>
<path d="M77 14.7L74.4 12.92C74.4 12.92 73.96 12.55 73.29 12.89C72.62 13.23 61.81 19.53 61.81 19.53C61.81 19.53 59.75 20.42 59.75 22.54C59.75 24.66 59.8 52.58 59.8 52.58C59.8 52.58 59.8 53.32 60.38 53.66C60.93 53.98 63.05 54.79 63.55 54.88C63.94 54.95 64.38 54.59 64.38 54.59C64.38 54.59 63.5 55.12 62.92 54.55C62.62 54.25 62.7 53.47 62.7 53V23.88C62.7 23.88 62.74 21.99 64.42 21.2C66.1 20.41 76.09 14.68 76.09 14.68C76.09 14.68 76.55 14.41 77 14.7Z" fill="white" stroke="#0061B1" stroke-width="1.5" stroke-miterlimit="10"/>
<path d="M62.7002 53.94V24.01C62.7002 22.87 63.3102 21.82 64.3102 21.27L76.0902 14.68C76.6902 14.34 77.4202 14.78 77.4102 15.46L77.2702 45.72C77.2702 46.53 76.8302 47.28 76.1402 47.68L64.1102 54.74C63.4802 55.11 62.7002 54.66 62.7002 53.93V53.94Z" fill="white" stroke="#0061B1" stroke-width="1.5" stroke-miterlimit="10"/>
<path d="M72.82 24.12C72.82 23.81 73.33 23.61 73.48 23.6L73.53 23.05C73.02 23.16 72.22 23.76 72.22 24.54C72.21 25.32 73.19 24.64 73.19 25.01C73.19 25.4 72.42 25.64 72.25 25.62L72.16 26.19C72.73 26.15 73.82 25.46 73.79 24.6C73.78 23.76 72.82 24.46 72.82 24.12ZM71.51 25.15C71.51 24.47 70.71 24.92 70.72 25.61L71.51 25.15ZM70.71 26.14C70.75 26.72 71.57 26.14 71.92 25.81L72.01 26.28C71.18 27.12 70.08 27.52 70.08 26.28C70.08 24.63 72.13 23.27 72.13 25.01C72.13 25.14 72.12 25.27 72.11 25.33L70.71 26.14ZM73.58 23.54L73.9 23.36V24.4C73.9 24.95 74.02 25.28 74.54 24.98C74.73 24.87 74.89 24.73 74.97 24.63V24.05C74.66 24.3 74.51 24.41 74.51 23.93V21.79L73.9 22.14V22.83L73.63 22.98L73.58 23.53V23.54ZM74.61 22.95L74.97 22.74L75.1 22.4L74.98 22.21L74.62 22.42V22.94L74.61 22.95ZM66.62 29.5L67.15 26.73L67.29 29.16L67.89 28.81L67.71 25.71L66.78 26.25L66.32 28.67L65.86 26.78L64.93 27.32L64.75 30.63L65.35 30.28L65.49 27.68L66.02 29.84L66.62 29.49V29.5Z" fill="#0061AF"/>
<path d="M69.3602 26.38C69.3602 25.7 68.5602 26.15 68.5702 26.84L69.3602 26.38ZM68.5602 27.37C68.6002 27.95 69.4202 27.37 69.7702 27.04L69.8602 27.51C69.0302 28.35 67.9302 28.75 67.9302 27.51C67.9302 25.86 69.9802 24.5 69.9802 26.24C69.9802 26.37 69.9702 26.5 69.9602 26.56L68.5602 27.37Z" fill="#0061AF"/>
<path d="M75.3001 21.3301L75.7501 22.0201L75.3001 23.2401L74.8501 23.5001L75.3001 22.2801L74.8501 21.5901L75.3001 21.3301Z" fill="#0061AF"/>
<path d="M66.4802 30.99V33.18L66.0402 33.43V31.65L65.1802 32.14V33.92L64.7402 34.17V31.98L66.4702 30.98L66.4802 30.99Z" fill="#0061AF"/>
<path d="M66.8198 31.8899C66.8198 31.2399 67.2598 30.4999 67.8598 30.1599C68.4598 29.8199 68.8998 30.0399 68.8998 30.6899C68.8998 31.3399 68.4598 32.0799 67.8598 32.4199C67.2598 32.7699 66.8198 32.5399 66.8198 31.8899ZM68.4498 30.9499C68.4498 30.5299 68.1998 30.3999 67.8598 30.5899C67.5198 30.7899 67.2698 31.2199 67.2698 31.6299C67.2698 32.0399 67.5198 32.1799 67.8598 31.9899C68.1998 31.7899 68.4498 31.3599 68.4498 30.9499Z" fill="#0061AF"/>
<path d="M71.73 27.95V30.1399L69.23 31.59V29.4L69.67 29.15V30.93L70.27 30.58V28.7999L70.71 28.5499V30.33L71.31 29.99V28.2099L71.75 27.9599L71.73 27.95Z" fill="#0061AF"/>
<path d="M73.66 27.2601L73.05 27.6101V29.3901L72.62 29.6401V27.8601L72.02 28.2101V27.8001L73.66 26.8501V27.2601Z" fill="#0061AF"/>
<path d="M75.1201 27.7199L74.2401 28.2299L74.0701 28.7999L73.6201 29.0599L74.4701 26.3799L74.9001 26.1299L75.7501 27.8299L75.2901 28.0999L75.1201 27.7299V27.7199ZM74.9801 27.4099L74.6801 26.7499L74.3801 27.7599L74.9801 27.4099Z" fill="#0061AF"/>
<path d="M65.8799 20.39L66.5999 20.88C66.9099 21.09 67.3099 21.11 67.6299 20.92L72.3999 18.22C72.7699 18.01 73.0299 17.65 73.0999 17.23L73.2799 16.25L65.8799 20.39Z" fill="#0061B1" stroke="#0061B1" stroke-width="0.5" stroke-miterlimit="10"/>
<path d="M67.95 20.05L67.91 19.97C67.87 19.9 67.9 19.82 67.97 19.78L71.78 17.7C71.85 17.66 71.93 17.69 71.97 17.76L72.01 17.84C72.05 17.91 72.02 17.99 71.95 18.03L68.14 20.11C68.07 20.15 67.99 20.12 67.95 20.05Z" fill="white"/>
<path d="M60.6602 27.7101V25.0501C60.6602 24.7901 60.8802 24.5801 61.1402 24.5801C61.4002 24.5801 61.6102 24.8001 61.6102 25.0501V27.7101C61.6102 27.9701 61.3902 28.1801 61.1402 28.1801C60.8902 28.1801 60.6602 27.9601 60.6602 27.7101Z" fill="#0061B1"/>
<path d="M60.6602 31.7899V29.1299C60.6602 28.8699 60.8802 28.6499 61.1402 28.6499C61.4002 28.6499 61.6102 28.8699 61.6102 29.1299V31.7899C61.6102 32.0499 61.3902 32.2699 61.1402 32.2699C60.8902 32.2699 60.6602 32.0499 60.6602 31.7899Z" fill="#0061B1"/>
<path d="M3.40997 65.5101L2.03997 64.6101C1.60997 64.3201 1.34997 63.8601 1.33997 63.3401L0.759968 37.3801C0.719968 35.4401 1.69997 33.6201 3.34997 32.5901L41.72 8.66006C42.52 8.16006 43.52 8.09006 44.37 8.48006L45.36 8.93006" stroke="#0C63AD" stroke-width="1.5" stroke-linejoin="round"/>
<path d="M4.87988 67.41L4.93988 69.19C4.96988 70.07 5.45988 70.87 6.23988 71.3L27.0099 82.68C29.3999 83.99 32.2999 83.9 34.6099 82.46L71.8999 59C72.6999 58.5 73.1399 57.59 73.0499 56.65L72.8799 54.73" fill="#0C63AD"/>
<path d="M4.87988 67.41L4.93988 69.19C4.96988 70.07 5.45988 70.87 6.23988 71.3L27.0099 82.68C29.3999 83.99 32.2999 83.9 34.6099 82.46L71.8999 59C72.6999 58.5 73.1399 57.59 73.0499 56.65L72.8799 54.73" stroke="#0C63AD" stroke-width="1.5" stroke-miterlimit="10"/>
<path d="M2.59014 64.11L1.87014 37.8C1.82014 36.03 2.72014 34.35 4.22014 33.42L43.5901 8.92C44.6801 8.24 46.1101 9.01 46.1401 10.3L46.7001 36.81C46.7301 38.58 45.8401 40.23 44.3401 41.17L5.13014 65.48C4.04014 66.16 2.63014 65.4 2.59014 64.11Z" fill="#FDFDFD" stroke="#0C63AD" stroke-width="1.5" stroke-miterlimit="10"/>
<path d="M28.0499 81.0599L5.30994 68.1399C4.75994 67.8299 4.74994 67.0399 5.28994 66.7099L45.0699 42.0399C46.8299 40.9499 49.0399 40.8699 50.8799 41.8399L71.5699 52.7899C73.2699 53.6899 73.3599 56.0899 71.7299 57.1099L34.0499 80.9099C32.2299 82.0599 29.9199 82.1199 28.0499 81.0499V81.0599Z" fill="#FDFDFD" stroke="#0C63AD" stroke-width="1.5" stroke-miterlimit="10"/>
<path d="M40.7798 47.23L42.9898 45.79L45.4698 47.04L43.1498 48.55L40.7898 47.23H40.7798Z" fill="#0C63AD" stroke="#0C63AD" stroke-linejoin="round"/>
<path d="M44.5 44.8899L46.71 43.45L49.19 44.7L46.87 46.2099L44.51 44.8899H44.5Z" fill="#0C63AD" stroke="#0C63AD" stroke-linejoin="round"/>
<path d="M37.0298 49.5601L39.2398 48.1201L41.7198 49.3701L39.3998 50.8801L37.0398 49.5601H37.0298Z" fill="#0C63AD" stroke="#0C63AD" stroke-linejoin="round"/>
<path d="M33.2798 52.0301L35.4898 50.5901L37.9698 51.8401L35.6498 53.3501L33.2898 52.0301H33.2798Z" fill="#0C63AD" stroke="#0C63AD" stroke-linejoin="round"/>
<path d="M29.3999 54.45L31.6099 53.01L34.0899 54.26L31.7699 55.77L29.4099 54.45H29.3999Z" fill="#0C63AD" stroke="#0C63AD" stroke-linejoin="round"/>
<path d="M25.5601 56.8299L27.7701 55.3899L30.2501 56.6399L27.9201 58.1499L25.5601 56.8299Z" fill="#0C63AD" stroke="#0C63AD" stroke-linejoin="round"/>
<path d="M21.8799 59.0799L24.0899 57.6399L26.5699 58.8899L24.2499 60.3999L21.8899 59.0799H21.8799Z" fill="#0C63AD" stroke="#0C63AD" stroke-linejoin="round"/>
<path d="M43.1602 50.2601L45.3602 48.8101L47.8402 50.0701L45.5202 51.5801L43.1702 50.2601H43.1602Z" fill="#0C63AD" stroke="#0C63AD" stroke-linejoin="round"/>
<path d="M48.04 51.7401L50.24 50.3L52.72 51.5601L50.39 53.0601L48.04 51.7401Z" fill="#0C63AD" stroke="#0C63AD" stroke-linejoin="round"/>
<path d="M50.4902 54.8299L52.6902 53.3899L55.1702 54.6499L52.8402 56.1499L50.4902 54.8299Z" fill="#0C63AD" stroke="#0C63AD" stroke-linejoin="round"/>
<path d="M51.75 58.54L55.75 56.04L58.24 57.4L54.11 59.86L51.75 58.54Z" fill="#0C63AD" stroke="#0C63AD" stroke-linejoin="round"/>
<path d="M56.9102 55.31L62.4302 51.96L64.9502 53.13L59.2702 56.62L56.9102 55.3V55.31Z" fill="#0C63AD" stroke="#0C63AD" stroke-linejoin="round"/>
<path d="M47.0098 57.0301L49.2098 55.5901L51.6898 56.8501L49.3598 58.3501L47.0098 57.0301Z" fill="#0C63AD" stroke="#0C63AD" stroke-linejoin="round"/>
<path d="M43.46 59.2801L45.66 57.8401L48.14 59.1001L45.81 60.6001L43.46 59.2801Z" fill="#0C63AD" stroke="#0C63AD" stroke-linejoin="round"/>
<path d="M39.7402 61.48L41.9402 60.03L44.4202 61.29L42.1002 62.8L39.7502 61.48H39.7402Z" fill="#0C63AD" stroke="#0C63AD" stroke-linejoin="round"/>
<path d="M36.1899 63.7701L38.3899 62.3201L40.8699 63.5801L38.5499 65.0901L36.1999 63.7701H36.1899Z" fill="#0C63AD" stroke="#0C63AD" stroke-linejoin="round"/>
<path d="M32.6401 66.0101L34.8401 64.5601L37.3201 65.8201L35.0001 67.3301L32.6501 66.0101H32.6401Z" fill="#0C63AD" stroke="#0C63AD" stroke-linejoin="round"/>
<path d="M29.1401 68.18L31.3401 66.74L33.8201 67.99L31.5001 69.5L29.1501 68.18H29.1401Z" fill="#0C63AD" stroke="#0C63AD" stroke-linejoin="round"/>
<path d="M31.8599 71.0901L35.9099 68.5701L38.5499 69.7101L34.2199 72.4201L31.8599 71.1001V71.0901Z" fill="#0C63AD" stroke="#0C63AD" stroke-linejoin="round"/>
<path d="M37.2202 67.5401L50.3902 59.3L52.8902 60.68L39.6602 68.9401L37.2202 67.5401Z" fill="#0C63AD" stroke="#0C63AD" stroke-linejoin="round"/>
<path d="M42.21 69.1099L52.78 62.4299L56.74 64.4599L46.21 71.2399L42.21 69.1099Z" fill="#0C63AD" stroke="#0C63AD" stroke-linejoin="round"/>
<path d="M44.5601 53.93L46.7701 52.49L49.2501 53.74L46.9201 55.25L44.5601 53.93Z" fill="#0C63AD" stroke="#0C63AD" stroke-linejoin="round"/>
<path d="M41.0898 56.1399L43.2998 54.7L45.7798 55.95L43.4598 57.4599L41.0998 56.1399H41.0898Z" fill="#0C63AD" stroke="#0C63AD" stroke-linejoin="round"/>
<path d="M37.4902 58.3399L39.7002 56.8899L42.1802 58.1499L39.8602 59.6599L37.5002 58.3399H37.4902Z" fill="#0C63AD" stroke="#0C63AD" stroke-linejoin="round"/>
<path d="M33.9502 60.71L36.1602 59.26L38.6402 60.52L36.3202 62.03L33.9602 60.71H33.9502Z" fill="#0C63AD" stroke="#0C63AD" stroke-linejoin="round"/>
<path d="M30.29 62.96L32.49 61.51L34.97 62.77L32.65 64.28L30.29 62.96Z" fill="#0C63AD" stroke="#0C63AD" stroke-linejoin="round"/>
<path d="M26.6499 65.1199L28.8499 63.6799L31.3299 64.9399L29.0099 66.4399L26.6499 65.1199Z" fill="#0C63AD" stroke="#0C63AD" stroke-linejoin="round"/>
<path d="M23.2598 67.3499L25.4598 65.9099L27.9498 67.1699L25.6198 68.6699L23.2598 67.3499Z" fill="#0C63AD" stroke="#0C63AD" stroke-linejoin="round"/>
<path d="M16.8999 71.36L21.7099 68.24L24.1999 69.5L19.4299 72.71L16.9099 71.35L16.8999 71.36Z" fill="#0C63AD" stroke="#0C63AD" stroke-linejoin="round"/>
<path d="M20.98 73.51L27.62 69.04L30.4 70.49L23.51 74.87L20.98 73.51Z" fill="#0C63AD" stroke="#0C63AD" stroke-linejoin="round"/>
<path d="M24.3999 75.65L30.4699 71.74L33.2499 73.2L27.1999 77.29L24.3999 75.65Z" fill="#0C63AD" stroke="#0C63AD" stroke-linejoin="round"/>
<path d="M46.7002 47.9799L50.8202 45.3799L53.2602 46.6799L49.0502 49.2999L46.7002 47.9799Z" fill="#0C63AD" stroke="#0C63AD" stroke-linejoin="round"/>
<path d="M39.4399 52.5999L41.6399 51.1499L44.1199 52.4099L41.7999 53.9199L39.4499 52.5999H39.4399Z" fill="#0C63AD" stroke="#0C63AD" stroke-linejoin="round"/>
<path d="M35.8901 54.93L38.0901 53.48L40.5701 54.74L38.2401 56.25L35.8901 54.93Z" fill="#0C63AD" stroke="#0C63AD" stroke-linejoin="round"/>
<path d="M32.4302 57.1199L34.6402 55.6799L37.1202 56.9399L34.7902 58.4399L32.4302 57.1199Z" fill="#0C63AD" stroke="#0C63AD" stroke-linejoin="round"/>
<path d="M28.46 59.5001L30.66 58.0601L33.14 59.3201L30.81 60.8201L28.46 59.5001Z" fill="#0C63AD" stroke="#0C63AD" stroke-linejoin="round"/>
<path d="M24.96 61.7501L27.16 60.3101L29.64 61.5701L27.31 63.0701L24.96 61.7501Z" fill="#0C63AD" stroke="#0C63AD" stroke-linejoin="round"/>
<path d="M21.3501 63.7501L23.5501 62.3101L26.0301 63.5601L23.7101 65.0701L21.3601 63.7501H21.3501Z" fill="#0C63AD" stroke="#0C63AD" stroke-linejoin="round"/>
<path d="M12.8701 69.4199L19.8901 64.9399L22.3701 66.1899L15.3901 70.6499L12.8701 69.4199Z" fill="#0C63AD" stroke="#0C63AD" stroke-linejoin="round"/>
<path d="M18.0898 61.5101L20.2998 60.0701L22.7798 61.3201L20.4498 62.8301L18.0898 61.5101Z" fill="#0C63AD" stroke="#0C63AD" stroke-linejoin="round"/>
<path d="M14.2998 63.9901L16.5098 62.55L18.9898 63.8L16.6598 65.31L14.2998 63.9901Z" fill="#0C63AD" stroke="#0C63AD" stroke-linejoin="round"/>
<path d="M8.97998 67.1099L11.19 65.6699L13.67 66.9299L11.34 68.4299L8.97998 67.1099Z" fill="#0C63AD" stroke="#0C63AD" stroke-linejoin="round"/>
<path d="M56.4902 54.1901L53.4902 52.6201L54.9602 51.5901L51.2202 49.6001L54.9402 47.5601L61.6202 50.9601L56.4902 54.1901Z" fill="#0C63AD" stroke="#0C63AD" stroke-linejoin="round"/>
<path d="M33.2 27.1101C33.2 26.1901 34.68 25.6401 35.12 25.5901L35.26 23.9901C33.76 24.3201 31.44 26.0601 31.45 28.3301C31.42 30.5901 34.28 28.6301 34.28 29.7001C34.28 30.8301 32.04 31.5401 31.55 31.4801L31.3 33.1501C32.96 33.0401 36.13 31.0201 36.04 28.5201C36.01 26.0601 33.2 28.1201 33.2 27.1101ZM29.39 30.1001C29.39 28.1101 27.07 29.4301 27.08 31.4301L29.39 30.1001ZM27.07 32.9801C27.19 34.6701 29.57 32.9901 30.6 32.0201L30.86 33.4001C28.46 35.8501 25.25 37.0101 25.25 33.4001C25.25 28.5901 31.21 24.6201 31.21 29.7101C31.21 30.0901 31.17 30.4601 31.15 30.6301L27.09 32.9801H27.07ZM35.43 25.4101L36.35 24.8801V27.9101C36.35 29.5001 36.7 30.4901 38.22 29.6101C38.77 29.2901 39.23 28.8701 39.48 28.6001V26.9001C38.57 27.6201 38.13 27.9401 38.13 26.5401V20.3101L36.35 21.3401V23.3601L35.57 23.8101L35.43 25.4101ZM38.43 23.6801L39.48 23.0701L39.84 22.0901L39.48 21.5401L38.43 22.1501V23.6701V23.6801ZM15.16 42.7701L16.71 34.7001L17.13 41.7901L18.87 40.7801L18.34 31.7401L15.62 33.3101L14.29 40.3601L12.96 34.8501L10.24 36.4201L9.70996 46.0801L11.45 45.0701L11.87 37.5001L13.42 43.7801L15.17 42.7701H15.16Z" fill="#0061AF"/>
<path d="M23.1302 33.7199C23.1302 31.7299 20.8102 33.0499 20.8202 35.0499L23.1302 33.7199ZM20.8102 36.5999C20.9302 38.2899 23.3102 36.6099 24.3402 35.6399L24.6002 37.0199C22.2002 39.4699 18.9902 40.6299 18.9902 37.0199C18.9902 32.2099 24.9502 28.2399 24.9502 33.3299C24.9502 33.7099 24.9102 34.0799 24.8902 34.2499L20.8302 36.5999H20.8102Z" fill="#0061AF"/>
<path d="M40.4299 18.98L41.7499 20.99L40.4299 24.54L39.1099 25.3L40.4299 21.75L39.1099 19.74L40.4299 18.98Z" fill="#0061AF"/>
<path d="M14.7502 47.1201V53.5001L13.4802 54.2301V49.0501L10.9902 50.4901V55.6701L9.72021 56.4001V50.0201L14.7602 47.1101L14.7502 47.1201Z" fill="#0061AF"/>
<path d="M15.73 49.74C15.73 47.84 17.01 45.7 18.75 44.7C20.49 43.7 21.77 44.35 21.77 46.25C21.77 48.15 20.48 50.29 18.75 51.29C17.01 52.3 15.73 51.63 15.73 49.74ZM20.48 47C20.48 45.79 19.74 45.39 18.75 45.96C17.76 46.53 17.02 47.79 17.02 49C17.02 50.21 17.76 50.61 18.75 50.04C19.74 49.47 20.48 48.21 20.48 47Z" fill="#0061AF"/>
<path d="M30.06 38.28V44.66L22.77 48.87V42.49L24.04 41.76V46.94L25.78 45.93V40.75L27.05 40.02V45.2L28.79 44.2V39.02L30.06 38.29V38.28Z" fill="#0061AF"/>
<path d="M35.6499 36.25L33.8799 37.2701V42.4501L32.6199 43.18V38L30.8599 39.0201V37.82L35.6499 35.05V36.25Z" fill="#0061AF"/>
<path d="M39.9198 37.6L37.3498 39.08L36.8598 40.73L35.5498 41.49L38.0098 33.69L39.2698 32.96L41.7398 37.91L40.3998 38.68L39.9098 37.6H39.9198ZM39.5198 36.71L38.6398 34.77L37.7598 37.72L39.5098 36.71H39.5198Z" fill="#0061AF"/>
<path d="M48.2001 19.88C53.4801 19.88 57.7601 15.6 57.7601 10.32C57.7601 5.04 53.4801 0.75 48.2001 0.75C42.9201 0.75 38.6401 5.03 38.6401 10.31C38.6401 15.59 42.9201 19.87 48.2001 19.87V19.88Z" fill="#0062AD" stroke="white" stroke-width="1.5"/>
<path d="M70.16 46.36C73.15 44.37 75.57 39.84 75.57 36.25C75.57 32.66 73.15 31.36 70.16 33.36C67.17 35.35 64.75 39.88 64.75 43.47C64.75 47.06 67.17 48.36 70.16 46.36Z" fill="#0062AD" stroke="white" stroke-width="1.5"/>
<path d="M44.0298 10.3101L47.1198 13.5601L52.3798 7.07007" stroke="white" stroke-width="2" stroke-linecap="round" stroke-linejoin="round"/>
<path d="M68.75 41.2299L70.29 42.7L72.91 35.95" stroke="white" stroke-width="2" stroke-linecap="round" stroke-linejoin="round"/>
</g>
<defs>
<clipPath id="clip0_5496_10191">
<rect width="80.36" height="85.93" fill="white"/>
</clipPath>
</defs>
</svg>
