<svg width="89" height="98" viewBox="0 0 89 98" fill="none" xmlns="http://www.w3.org/2000/svg">
<g clip-path="url(#clip0_5496_10316)">
<path opacity="0.13" d="M41.5 94.75C64.42 94.75 83 84.06 83 70.88C83 57.7 64.42 47.01 41.5 47.01C18.58 47.01 0 57.69 0 70.88C0 84.07 18.58 94.75 41.5 94.75Z" fill="#0061AF"/>
<path d="M26.2305 28.0199L70.3005 3.37988" stroke="#DAE0E6" stroke-width="2" stroke-miterlimit="10" stroke-linecap="round"/>
<path d="M27.4502 31.09L71.5402 6.44995" stroke="#DAE0E6" stroke-width="2" stroke-miterlimit="10" stroke-linecap="round"/>
<path d="M32 32.4401L74.7 8.3501" stroke="#DAE0E6" stroke-width="2" stroke-miterlimit="10" stroke-linecap="round"/>
<path d="M82.8196 48.67L82.7596 7.37C82.7596 7.09 82.4596 6.93 82.2196 7.06C77.2096 9.89 38.4296 32.22 38.4296 32.22C38.4296 32.22 29.9196 36.55 24.9396 30.8C24.5496 30.36 23.8496 30.6 23.8496 31.19L24.8696 80.89C24.8696 81.17 25.1696 81.33 25.4096 81.2L82.6196 49.01C82.7696 48.94 82.8396 48.81 82.8196 48.68V48.67Z" fill="white" stroke="#0061AF" stroke-width="1.5" stroke-miterlimit="10"/>
<path d="M27.3704 32.74C22.9904 30.7 23.8404 26.97 26.6304 25.41C32.2004 22.3 70.6104 0.75 70.6104 0.75" stroke="#0061AF" stroke-width="1.5" stroke-miterlimit="10" stroke-linecap="round"/>
<path d="M88.08 31.24V21.1C88.08 21.01 87.97 20.93 87.88 20.99C86.25 21.93 74.91 28.48 69.51 31.5C62.96 35.14 63.83 45.43 70.34 41.79C74.5 39.48 85.42 33.24 87.68 31.95C87.94 31.8 88.09 31.54 88.09 31.25L88.08 31.24Z" fill="white" stroke="#0061AF" stroke-width="1.5" stroke-miterlimit="10" stroke-linecap="round"/>
<path d="M73.3903 36.9999C74.1703 35.5599 74.0403 33.9799 73.1003 33.4699C72.1603 32.9599 70.7603 33.6999 69.9803 35.1399C69.2003 36.5799 69.3303 38.1599 70.2703 38.6699C71.2103 39.1799 72.6103 38.4399 73.3903 36.9999Z" fill="#0061AF"/>
<path d="M87.7395 20.8199L83.0195 17.8999L83.1095 23.4099L87.7395 20.9899C87.7995 20.9699 87.7995 20.8799 87.7395 20.8199Z" fill="#0061AF" stroke="#0061AF" stroke-width="1.5" stroke-miterlimit="10" stroke-linecap="round"/>
<path d="M14.4697 96.6901V64.7001C14.4697 64.6101 14.5197 64.5201 14.5897 64.4801L55.2997 40.4301C55.4797 40.3301 55.6897 40.4601 55.6897 40.6501L55.3197 72.2801C55.3197 72.3701 55.2697 72.4401 55.1997 72.5001L14.8797 96.9001C14.6997 97.0001 14.4797 96.8901 14.4797 96.6801L14.4697 96.6901Z" fill="#0061AF" stroke="#0061AF" stroke-width="1.5" stroke-miterlimit="10" stroke-linecap="round"/>
<path d="M17.6201 78.1101V73.0901C17.6201 72.8201 17.6301 72.3601 18.5801 71.8201C19.6001 71.2401 24.7001 68.2501 24.7001 68.2501C24.7001 68.2501 25.3401 67.8801 25.3601 68.5501C25.3901 69.2201 25.3601 73.5901 25.3601 73.5901C25.3601 73.5901 25.4001 74.1001 25.0201 74.4001C24.6301 74.7001 19.1401 77.8901 18.3301 78.3901C17.9901 78.5801 17.6301 78.5101 17.6301 78.1201L17.6201 78.1101Z" fill="white"/>
<path d="M17.6204 83.77C17.6204 83.77 17.6304 82.74 17.6304 82.35C17.6304 82.05 17.9004 81.77 18.4404 81.45C19.5504 80.82 22.7104 78.95 24.8004 77.78C24.9304 77.7 25.3504 77.63 25.3504 78C25.3504 78.52 25.3604 79.06 25.3604 79.51C25.3604 79.73 25.1804 80.08 24.8404 80.27C24.0504 80.73 19.9804 83.07 18.2404 84.09C17.9904 84.24 17.6104 84.19 17.6104 83.76L17.6204 83.77Z" fill="white"/>
<path d="M26.8203 78.5399C26.8203 78.5399 26.8403 77.5099 26.8403 77.1199C26.8403 76.8199 27.1103 76.5399 27.6503 76.2199C28.7603 75.5899 31.9203 73.7199 34.0103 72.5499C34.1403 72.4799 34.5603 72.3999 34.5603 72.7699C34.5603 73.2899 34.5703 73.8299 34.5703 74.2799C34.5703 74.4999 34.3903 74.8499 34.0503 75.0399C33.2603 75.4999 29.1903 77.8399 27.4503 78.8599C27.2003 79.0099 26.8203 78.9599 26.8203 78.5299V78.5399Z" fill="white"/>
<path d="M36.0596 73.13C36.0596 73.13 36.0796 72.1 36.0796 71.71C36.0796 71.41 36.3496 71.13 36.8896 70.81C37.9996 70.18 41.1596 68.31 43.2496 67.14C43.3796 67.07 43.7996 66.99 43.7996 67.36C43.7996 67.88 43.8096 68.42 43.8096 68.87C43.8096 69.09 43.6296 69.44 43.2896 69.63C42.4996 70.09 38.4296 72.43 36.6896 73.45C36.4396 73.6 36.0596 73.55 36.0596 73.12V73.13Z" fill="white"/>
<path d="M45.3496 67.7301C45.3496 67.7301 45.3696 66.7001 45.3696 66.3101C45.3696 66.0101 45.6396 65.7301 46.1796 65.4101C47.2896 64.7801 50.4496 62.9101 52.5396 61.7401C52.6696 61.6701 53.0896 61.5901 53.0896 61.9601C53.0896 62.4801 53.0996 63.0201 53.0996 63.4701C53.0996 63.6901 52.9196 64.0401 52.5796 64.2301C51.7896 64.6901 47.7196 67.0301 45.9796 68.0501C45.7296 68.2001 45.3496 68.1501 45.3496 67.7201V67.7301Z" fill="white"/>
<path d="M33.0901 82.0499C33.0901 81.7499 33.0801 81.4199 33.0801 81.0299C33.0801 80.7499 33.3001 80.4599 33.7201 80.2099C34.2601 79.8999 47.6601 72.1399 52.3101 69.4599C52.5901 69.2999 52.9401 69.2199 52.9401 69.6699V70.6299C52.9401 70.8099 52.9401 71.0199 52.6001 71.2299C52.2601 71.4399 38.4901 79.3799 33.7101 82.1599C33.4301 82.3199 33.1001 82.4399 33.1001 82.0599L33.0901 82.0499Z" fill="white"/>
<path d="M50.7898 68.1699C50.7798 68.0099 50.7598 67.5099 50.7598 67.5099C50.7598 67.5099 50.7598 67.3199 50.9398 67.1999C51.1198 67.0799 52.1498 66.4099 52.5598 66.1399C52.6898 66.0499 52.9198 66.0199 52.9198 66.2299C52.9198 66.6299 52.9298 66.9799 52.9298 66.9799C52.9298 66.9799 52.9598 67.0999 52.7698 67.2299C52.5798 67.3599 51.6198 67.9799 51.1198 68.2799C50.9898 68.3699 50.8098 68.3699 50.7898 68.1799V68.1699Z" fill="white"/>
<path d="M47.49 70.0401C47.48 69.8801 47.46 69.3801 47.46 69.3801C47.46 69.3801 47.46 69.1901 47.64 69.0701C47.82 68.9501 48.85 68.2801 49.26 68.0101C49.39 67.9201 49.62 67.8901 49.62 68.1001C49.62 68.5001 49.64 68.8501 49.64 68.8501C49.64 68.8501 49.67 68.9701 49.48 69.1001C49.29 69.2301 48.33 69.8501 47.83 70.1501C47.7 70.2401 47.52 70.2401 47.5 70.0401H47.49Z" fill="white"/>
</g>
<defs>
<clipPath id="clip0_5496_10316">
<rect width="88.83" height="97.71" fill="white"/>
</clipPath>
</defs>
</svg>
