<svg width="88" height="91" viewBox="0 0 88 91" fill="none" xmlns="http://www.w3.org/2000/svg">
<g clip-path="url(#clip0_5496_10271)">
<path opacity="0.13" d="M37.05 90.9301C57.51 90.9301 74.1 81.3901 74.1 69.6201C74.1 57.8501 57.51 48.3101 37.05 48.3101C16.59 48.3101 0 57.8401 0 69.6101C0 81.3801 16.59 90.9201 37.05 90.9201V90.9301Z" fill="#0061AF"/>
<path d="M57.0302 4.58001L51.9402 1.09001C51.9402 1.09001 51.0802 0.370012 49.7702 1.03001C48.4702 1.70001 27.2602 14.04 27.2602 14.04C27.2602 14.04 23.2202 15.78 23.2202 19.94C23.2202 24.1 23.3202 78.84 23.3202 78.84C23.3202 78.84 23.3202 80.29 24.4602 80.96C25.5402 81.58 29.7002 83.18 30.6702 83.36C31.4302 83.5 32.3002 82.79 32.3002 82.79C32.3002 82.79 30.5702 83.83 29.4302 82.7C28.8302 82.1 29.0002 80.59 29.0002 79.67V22.58C29.0002 22.58 29.0702 18.87 32.3802 17.33C35.6802 15.79 55.2702 4.54001 55.2702 4.54001C55.2702 4.54001 56.1602 4.01001 57.0502 4.58001H57.0302Z" fill="white" stroke="#0061B1" stroke-width="1.5" stroke-miterlimit="10"/>
<path d="M29 81.5101V22.8301C29 20.5901 30.2 18.5501 32.15 17.4501L55.25 4.5401C56.42 3.8801 57.86 4.7401 57.85 6.0701L57.58 65.4001C57.57 66.9901 56.72 68.4501 55.36 69.2501L31.78 83.1001C30.55 83.8201 29.01 82.9401 29.01 81.5101H29Z" fill="white" stroke="#0061B1" stroke-width="1.5" stroke-miterlimit="10"/>
<path d="M35.23 15.7301L36.65 16.6901C37.26 17.1001 38.04 17.1401 38.67 16.7801L48.02 11.4901C48.74 11.0801 49.25 10.3701 49.4 9.55013L49.75 7.63013L35.23 15.7401V15.7301Z" fill="#0061B1" stroke="#0061B1" stroke-width="0.5" stroke-miterlimit="10"/>
<path d="M39.2999 15.0699L39.2099 14.9099C39.1399 14.7699 39.1899 14.6099 39.3199 14.5399L46.7799 10.4699C46.9199 10.3999 47.0799 10.4499 47.1499 10.5799L47.2399 10.7399C47.3099 10.8799 47.2599 11.0399 47.1299 11.1099L39.6699 15.1799C39.5299 15.2499 39.3699 15.1999 39.2999 15.0699Z" fill="white"/>
<path d="M25 30.0699V24.8499C25 24.3399 25.42 23.9199 25.93 23.9199C26.44 23.9199 26.86 24.3399 26.86 24.8499V30.0699C26.86 30.5799 26.44 30.9999 25.93 30.9999C25.42 30.9999 25 30.5799 25 30.0699Z" fill="#0061B1"/>
<path d="M25 38.0799V32.8599C25 32.3499 25.42 31.9299 25.93 31.9299C26.44 31.9299 26.86 32.3499 26.86 32.8599V38.0799C26.86 38.5899 26.44 39.0099 25.93 39.0099C25.42 39.0099 25 38.5899 25 38.0799Z" fill="#0061B1"/>
<path d="M8.60986 33.2601C8.60986 28.0701 12.8199 23.8601 18.0099 23.8601H76.8699C82.0599 23.8601 86.2699 28.0701 86.2699 33.2601C86.2699 38.4501 82.0599 42.6601 76.8699 42.6601H18.0099C12.8199 42.6601 8.60986 38.4501 8.60986 33.2601Z" fill="#0461AB" stroke="white" stroke-width="1.5" stroke-miterlimit="10"/>
<path d="M75.0998 36.31V29.95H76.2798V35.31H79.5998V36.31H75.0898H75.0998Z" fill="white"/>
<path d="M68.6001 36.31V29.95H71.2201C71.7801 29.95 72.2601 30.0399 72.6601 30.2199C73.0701 30.3999 73.3801 30.66 73.6001 31C73.8201 31.34 73.9301 31.7399 73.9301 32.2099C73.9301 32.6799 73.8201 33.0799 73.6001 33.4199C73.3801 33.7599 73.0701 34.02 72.6601 34.2C72.2601 34.38 71.7801 34.47 71.2201 34.47H69.2601L69.7901 33.9199V36.31H68.6101H68.6001ZM69.7801 34.0499L69.2501 33.4799H71.1601C71.6801 33.4799 72.0701 33.37 72.3301 33.15C72.6001 32.93 72.7301 32.6099 72.7301 32.2099C72.7301 31.8099 72.6001 31.49 72.3301 31.27C72.0701 31.05 71.6801 30.94 71.1601 30.94H69.2501L69.7801 30.36V34.04V34.0499Z" fill="white"/>
<path d="M66.6299 36.3701C66.4199 36.3701 66.2499 36.3001 66.0999 36.1601C65.9499 36.0101 65.8799 35.8301 65.8799 35.6101C65.8799 35.3801 65.9499 35.2001 66.0999 35.0601C66.2499 34.9201 66.4199 34.8501 66.6299 34.8501C66.8399 34.8501 67.0099 34.9201 67.1599 35.0601C67.3099 35.1901 67.3799 35.3701 67.3799 35.6101C67.3799 35.8301 67.3099 36.0101 67.1599 36.1601C67.0099 36.3001 66.8399 36.3701 66.6299 36.3701Z" fill="white"/>
<path d="M64.4199 36.3701C64.2099 36.3701 64.0399 36.3001 63.8899 36.1601C63.7399 36.0101 63.6699 35.8301 63.6699 35.6101C63.6699 35.3801 63.7399 35.2001 63.8899 35.0601C64.0399 34.9201 64.2099 34.8501 64.4199 34.8501C64.6299 34.8501 64.7999 34.9201 64.9499 35.0601C65.0999 35.1901 65.1699 35.3701 65.1699 35.6101C65.1699 35.8301 65.0999 36.0101 64.9499 36.1601C64.7999 36.3001 64.6299 36.3701 64.4199 36.3701Z" fill="white"/>
<path d="M62.2002 36.3701C61.9902 36.3701 61.8202 36.3001 61.6702 36.1601C61.5202 36.0101 61.4502 35.8301 61.4502 35.6101C61.4502 35.3801 61.5202 35.2001 61.6702 35.0601C61.8202 34.9201 61.9902 34.8501 62.2002 34.8501C62.4102 34.8501 62.5802 34.9201 62.7302 35.0601C62.8802 35.1901 62.9502 35.3701 62.9502 35.6101C62.9502 35.8301 62.8802 36.0101 62.7302 36.1601C62.5802 36.3001 62.4102 36.3701 62.2002 36.3701Z" fill="white"/>
<path d="M58.1402 36.4001C57.6402 36.4001 57.1802 36.2701 56.7802 36.0201C56.3802 35.7701 56.0702 35.4001 55.8402 34.9101C55.6102 34.4201 55.4902 33.8301 55.4902 33.1301C55.4902 32.4301 55.6002 31.8401 55.8402 31.3601C56.0702 30.8701 56.3902 30.5001 56.7802 30.2401C57.1902 29.9901 57.6402 29.8601 58.1402 29.8601C58.6402 29.8601 59.1002 29.9901 59.5002 30.2401C59.9002 30.4901 60.2102 30.8701 60.4402 31.3601C60.6802 31.8401 60.7902 32.4401 60.7902 33.1301C60.7902 33.8201 60.6702 34.4201 60.4402 34.9101C60.2102 35.3901 59.9002 35.7601 59.5002 36.0201C59.1002 36.2701 58.6502 36.4001 58.1402 36.4001ZM58.1402 35.3701C58.4402 35.3701 58.6902 35.2901 58.9102 35.1301C59.1302 34.9701 59.3002 34.7201 59.4202 34.3901C59.5502 34.0601 59.6102 33.6401 59.6102 33.1301C59.6102 32.6201 59.5502 32.1901 59.4202 31.8701C59.3002 31.5401 59.1302 31.2901 58.9102 31.1301C58.6902 30.9701 58.4302 30.8801 58.1402 30.8801C57.8502 30.8801 57.6002 30.9601 57.3802 31.1301C57.1602 31.2901 56.9902 31.5301 56.8602 31.8701C56.7402 32.2001 56.6802 32.6201 56.6802 33.1301C56.6802 33.6401 56.7402 34.0601 56.8602 34.3901C56.9902 34.7201 57.1602 34.9701 57.3802 35.1301C57.6002 35.2901 57.8602 35.3701 58.1402 35.3701Z" fill="white"/>
<path d="M51.2002 36.31L53.8302 30.42L54.1402 30.95H50.5302L51.0902 30.3799V32.0299H49.9902V29.95H54.9302V30.74L52.4602 36.31H51.2002Z" fill="white"/>
<path d="M45.67 36.31L48.3 30.42L48.61 30.95H45L45.56 30.3799V32.0299H44.46V29.95H49.4V30.74L46.93 36.31H45.67Z" fill="white"/>
<path d="M41.19 36.4001C40.69 36.4001 40.23 36.2701 39.83 36.0201C39.43 35.7701 39.12 35.4001 38.89 34.9101C38.66 34.4201 38.54 33.8301 38.54 33.1301C38.54 32.4301 38.66 31.8401 38.89 31.3601C39.12 30.8701 39.44 30.5001 39.83 30.2401C40.24 29.9901 40.69 29.8601 41.19 29.8601C41.69 29.8601 42.15 29.9901 42.55 30.2401C42.95 30.4901 43.26 30.8701 43.49 31.3601C43.73 31.8401 43.84 32.4401 43.84 33.1301C43.84 33.8201 43.72 34.4201 43.49 34.9101C43.26 35.3901 42.94 35.7601 42.55 36.0201C42.15 36.2701 41.7 36.4001 41.19 36.4001ZM41.19 35.3701C41.49 35.3701 41.74 35.2901 41.96 35.1301C42.18 34.9701 42.35 34.7201 42.47 34.3901C42.6 34.0601 42.66 33.6401 42.66 33.1301C42.66 32.6201 42.6 32.1901 42.47 31.8701C42.35 31.5401 42.18 31.2901 41.96 31.1301C41.74 30.9701 41.48 30.8801 41.19 30.8801C40.9 30.8801 40.65 30.9601 40.43 31.1301C40.21 31.2901 40.04 31.5301 39.91 31.8701C39.79 32.2001 39.73 32.6201 39.73 33.1301C39.73 33.6401 39.79 34.0601 39.91 34.3901C40.04 34.7201 40.21 34.9701 40.43 35.1301C40.65 35.2901 40.91 35.3701 41.19 35.3701Z" fill="white"/>
<path d="M36.0998 36.31V30.4L36.6198 30.94H34.7598V29.95H37.2898V36.31H36.1098H36.0998Z" fill="white"/>
<path d="M31.7899 36.4C31.3399 36.4 30.8999 36.3399 30.4699 36.2099C30.0499 36.0799 29.6899 35.9 29.3999 35.66L29.9099 34.74C30.1399 34.93 30.4199 35.0799 30.7499 35.1899C31.0799 35.3099 31.4199 35.36 31.7799 35.36C32.1999 35.36 32.5299 35.28 32.7699 35.11C33.0099 34.93 33.1199 34.7 33.1199 34.4C33.1199 34.1 33.0099 33.8799 32.7899 33.7099C32.5699 33.5399 32.2199 33.4599 31.7399 33.4599H31.1599V32.65L32.9799 30.49L33.1299 30.94H29.7099V29.95H34.0399V30.74L32.2199 32.9L31.5999 32.54H31.9499C32.7299 32.54 33.3199 32.72 33.6999 33.07C34.0899 33.42 34.2899 33.86 34.2899 34.41C34.2899 34.77 34.1999 35.1 34.0199 35.4C33.8399 35.7 33.5599 35.9499 33.1799 36.1399C32.8099 36.3199 32.3399 36.41 31.7699 36.41L31.7899 36.4Z" fill="white"/>
<path d="M25.5002 36.31L22.7202 29.95H24.0002L26.4802 35.7H25.7402L28.2502 29.95H29.4302L26.6602 36.31H25.5002Z" fill="white"/>
<path d="M19.9999 36.4001C19.5199 36.4001 19.0599 36.3201 18.6499 36.1601C18.2399 36.0001 17.8799 35.7701 17.5699 35.4801C17.2699 35.1801 17.0299 34.8301 16.8599 34.4401C16.6899 34.0401 16.6099 33.6001 16.6099 33.1301C16.6099 32.6601 16.6899 32.2201 16.8599 31.8201C17.0299 31.4201 17.2699 31.0801 17.5799 30.7801C17.8899 30.4801 18.2499 30.2601 18.6599 30.1001C19.0699 29.9401 19.5199 29.8501 20.0099 29.8501C20.5299 29.8501 21.0099 29.9401 21.4399 30.1201C21.8699 30.3001 22.2299 30.5601 22.5299 30.9101L21.7699 31.6301C21.5399 31.3801 21.2799 31.2001 20.9999 31.0801C20.7199 30.9501 20.4099 30.8901 20.0699 30.8901C19.7299 30.8901 19.4299 30.9401 19.1499 31.0501C18.8799 31.1601 18.6399 31.3101 18.4299 31.5101C18.2299 31.7101 18.0699 31.9501 17.9599 32.2201C17.8499 32.4901 17.7999 32.7901 17.7999 33.1201C17.7999 33.4501 17.8499 33.7501 17.9599 34.0201C18.0799 34.2901 18.2299 34.5301 18.4299 34.7301C18.6399 34.9301 18.8799 35.0801 19.1499 35.1901C19.4299 35.3001 19.7299 35.3501 20.0699 35.3501C20.4099 35.3501 20.7099 35.2901 20.9999 35.1701C21.2799 35.0401 21.5399 34.8501 21.7699 34.6001L22.5299 35.3301C22.2299 35.6801 21.8699 35.9401 21.4399 36.1201C21.0099 36.3001 20.5299 36.3901 19.9999 36.3901V36.4001Z" fill="white"/>
</g>
<defs>
<clipPath id="clip0_5496_10271">
<rect width="87.02" height="90.93" fill="white"/>
</clipPath>
</defs>
</svg>
