<svg width="91" height="94" viewBox="0 0 91 94" fill="none" xmlns="http://www.w3.org/2000/svg">
<g clip-path="url(#clip0_5496_10299)">
<path opacity="0.13" d="M48.1699 93.75C70.6999 93.75 88.9599 83.46 88.9599 70.76C88.9599 58.06 70.6999 47.77 48.1699 47.77C25.6399 47.77 7.37988 58.07 7.37988 70.76C7.37988 83.45 25.6399 93.75 48.1699 93.75Z" fill="#0061AF"/>
<path d="M58.8594 62.5801V28.9001C58.8594 27.5201 59.6894 26.2901 60.9794 25.7601L89.2894 14.1101C89.2894 14.1101 89.3894 14.1301 89.3894 14.1701V50.5401L60.4494 63.6001C59.7194 63.9401 58.8694 63.3901 58.8694 62.5801H58.8594Z" fill="white" stroke="#0062AD" stroke-width="1.5" stroke-miterlimit="10"/>
<path d="M55.9197 24.98L27.4197 13.38C27.4197 13.38 27.3697 13.3 27.4197 13.27L58.0997 0.87C58.5097 0.71 58.9497 0.71 59.3497 0.87L89.1597 13.07C89.4497 13.18 89.4497 13.6 89.1597 13.71L61.5397 24.97C59.7397 25.74 57.7097 25.73 55.9197 24.97V24.98Z" fill="white" stroke="#0062AD" stroke-width="1.5" stroke-miterlimit="10"/>
<path d="M27.9799 13.18C27.6899 13.06 27.3799 13.28 27.3799 13.59L27.9499 49.68C27.9499 50.62 28.5199 51.46 29.3699 51.81L58.7999 63.7C58.7999 63.7 58.8599 63.68 58.8499 63.67L58.7699 27.71C58.7699 26.93 58.3199 26.26 57.6199 25.94L27.9799 13.18Z" fill="white" stroke="#0062AD" stroke-width="1.5" stroke-miterlimit="10"/>
<path d="M73.1699 20.57V35.09L81.7499 31.23V16.97L73.1699 20.58V20.57Z" fill="#0062AD" stroke="#0062AD" stroke-miterlimit="10"/>
<path d="M72.79 20.7799L65.54 17.1199L74.44 13.1499L81.75 16.8499L72.79 20.7799Z" fill="#0062AD" stroke="#0062AD" stroke-miterlimit="10"/>
<path d="M43.1195 19.8301L74.1195 6.7301L59.8995 1.0101C59.1595 0.670101 58.3295 0.670101 57.5895 0.980101L28.5195 13.3901C28.2695 13.5001 28.2695 13.8501 28.5195 13.9501L43.1195 19.8301Z" fill="#0062AD" stroke="#0062AD" stroke-miterlimit="10"/>
<path d="M1.76957 69.6701L0.0595703 51.8701L13.5296 50.7601C19.0596 50.4201 25.0696 53.4201 27.9596 58.1601L38.9296 64.3601C42.1696 65.7501 43.9496 69.3901 39.9396 71.3601H40.0396L59.6796 69.2901C61.8196 69.0701 63.7296 70.6301 63.9396 72.7801C64.1496 74.9201 62.5896 76.8201 60.4596 77.0301L36.2796 79.4701C34.1896 79.6801 32.0896 79.3501 30.1596 78.5301L7.91957 69.0401L1.76957 69.6701Z" fill="white"/>
<path d="M1.81934 69.66L7.98934 69.05L30.6493 78.7C32.1393 79.34 33.7493 79.59 35.3593 79.43L60.6993 77.04C62.8293 76.84 64.3993 74.95 64.2093 72.81C64.0193 70.65 62.0893 69.06 59.9193 69.29L39.5793 71.39" stroke="#0062AD" stroke-width="1.5" stroke-miterlimit="10"/>
<path d="M0.0595703 51.8701L12.5596 50.8101C18.6596 50.3001 24.5596 53.0901 28.0396 58.1301L41.0196 65.1501C42.5696 66.3201 42.8896 68.5301 41.7296 70.1001C40.5596 71.6801 38.3296 72.0101 36.7496 70.8401L22.2496 62.8601" stroke="#0062AD" stroke-width="1.5" stroke-miterlimit="10"/>
</g>
<defs>
<clipPath id="clip0_5496_10299">
<rect width="90.13" height="93.75" fill="white"/>
</clipPath>
</defs>
</svg>
