<svg width="59" height="59" viewBox="0 0 59 59" fill="none" xmlns="http://www.w3.org/2000/svg">
<path d="M55.0667 35.3508H46.2167V25.7328C46.5248 25.4585 46.7716 25.1223 46.941 24.7462C47.1105 24.37 47.1987 23.9624 47.2 23.5498V12.7332C47.1982 11.4297 46.6796 10.1802 45.7579 9.25856C44.8363 8.33691 43.5868 7.81832 42.2833 7.8165H35.4V4.8665C35.3982 3.56307 34.8796 2.31356 33.9579 1.3919C33.0363 0.470239 31.7868 -0.0483499 30.4833 -0.0501709H16.7167C15.4132 -0.0483499 14.1637 0.470239 13.2421 1.3919C12.3204 2.31356 11.8018 3.56307 11.8 4.8665V7.8165H4.91667C3.61324 7.81832 2.36373 8.33691 1.44207 9.25856C0.52041 10.1802 0.00182097 11.4297 0 12.7332L0 23.5498C0.00129398 23.9624 0.0895354 24.37 0.258969 24.7462C0.428403 25.1223 0.675224 25.4585 0.983333 25.7328V39.2851C0.984895 40.5886 1.5034 41.8383 2.42512 42.76C3.34683 43.6817 4.5965 44.2002 5.9 44.2018H21.6333V55.0185C21.6333 56.0616 22.0477 57.0621 22.7854 57.7998C23.523 58.5374 24.5235 58.9518 25.5667 58.9518H55.0667C56.1099 58.9518 57.1103 58.5374 57.848 57.7998C58.5856 57.0621 59 56.0616 59 55.0185V39.2851C59.0001 38.7685 58.8985 38.2569 58.7009 37.7796C58.5033 37.3023 58.2136 36.8686 57.8483 36.5032C57.483 36.1379 57.0494 35.848 56.5721 35.6503C56.0948 35.4526 55.5833 35.3508 55.0667 35.3508ZM13.7667 4.86748C13.7667 4.08509 14.0775 3.33475 14.6307 2.78151C15.1839 2.22828 15.9343 1.91748 16.7167 1.91748H30.4833C31.2657 1.91748 32.0161 2.22828 32.5693 2.78151C33.1225 3.33475 33.4333 4.08509 33.4333 4.86748V7.81748H31.4667V5.85081C31.4667 5.32922 31.2595 4.82899 30.8906 4.46017C30.5218 4.09135 30.0216 3.88415 29.5 3.88415H17.7C17.1784 3.88415 16.6782 4.09135 16.3094 4.46017C15.9405 4.82899 15.7333 5.32922 15.7333 5.85081V7.81748H13.7667V4.86748ZM29.5 7.81748H17.7V5.85081H29.5V7.81748ZM1.96667 12.7341C1.96667 11.9518 2.27747 11.2014 2.8307 10.6482C3.38393 10.0949 4.13428 9.78415 4.91667 9.78415H42.2833C43.0657 9.78415 43.8161 10.0949 44.3693 10.6482C44.9225 11.2014 45.2333 11.9518 45.2333 12.7341V23.5508C45.2333 23.8116 45.1297 24.0617 44.9453 24.2461C44.7609 24.4305 44.5108 24.5341 44.25 24.5341H2.95C2.6892 24.5341 2.43909 24.4305 2.25468 24.2461C2.07027 24.0617 1.96667 23.8116 1.96667 23.5508V12.7341ZM20.65 26.5008H26.55V28.4675C26.55 28.7283 26.4464 28.9784 26.262 29.1628C26.0776 29.3472 25.8275 29.4508 25.5667 29.4508H21.6333C21.3725 29.4508 21.1224 29.3472 20.938 29.1628C20.7536 28.9784 20.65 28.7283 20.65 28.4675V26.5008ZM21.6333 39.2841V42.2341H5.9C5.11761 42.2341 4.36727 41.9233 3.81404 41.3701C3.2608 40.8169 2.95 40.0665 2.95 39.2841V26.5008H18.6833V28.4675C18.6833 29.2499 18.9941 30.0002 19.5474 30.5534C20.1006 31.1067 20.8509 31.4175 21.6333 31.4175H25.5667C26.3491 31.4175 27.0994 31.1067 27.6526 30.5534C28.2059 30.0002 28.5167 29.2499 28.5167 28.4675V26.5008H44.25V35.3508H25.5667C25.0501 35.3508 24.5385 35.4526 24.0612 35.6503C23.5839 35.848 23.1503 36.1379 22.785 36.5032C22.4198 36.8686 22.1301 37.3023 21.9325 37.7796C21.7348 38.2569 21.6332 38.7675 21.6333 39.2841ZM57.0333 55.0175C57.0333 55.5391 56.8261 56.0393 56.4573 56.4081C56.0885 56.7769 55.5883 56.9841 55.0667 56.9841H25.5667C25.0451 56.9841 24.5448 56.7769 24.176 56.4081C23.8072 56.0393 23.6 55.5391 23.6 55.0175V39.2841C23.6 38.7626 23.8072 38.2623 24.176 37.8935C24.5448 37.5247 25.0451 37.3175 25.5667 37.3175H55.0667C55.5883 37.3175 56.0885 37.5247 56.4573 37.8935C56.8261 38.2623 57.0333 38.7626 57.0333 39.2841V55.0175Z" fill="#1E579F"/>
</svg>
