<svg width="63" height="63" viewBox="0 0 63 63" fill="none" xmlns="http://www.w3.org/2000/svg">
<circle cx="31.5" cy="31.5" r="30.5" fill="white" stroke="#1E579F" stroke-width="2"/>
<path d="M46.6666 21.9852L30.8 30.8M30.8 30.8L14.9333 21.9852M30.8 30.8L30.8 48.5334M47.6 38.376V23.2241C47.6 22.5845 47.6 22.2647 47.5058 21.9795C47.4224 21.7271 47.2861 21.4955 47.1061 21.3001C46.9025 21.0792 46.6229 20.9239 46.0638 20.6133L32.2505 12.9392C31.7211 12.6451 31.4564 12.498 31.1761 12.4404C30.928 12.3893 30.6721 12.3893 30.424 12.4404C30.1437 12.498 29.879 12.6451 29.3496 12.9392L15.5362 20.6133C14.9771 20.9239 14.6976 21.0792 14.494 21.3001C14.3139 21.4955 14.1776 21.7271 14.0943 21.9795C14 22.2647 14 22.5845 14 23.2241V38.376C14 39.0156 14 39.3354 14.0943 39.6206C14.1776 39.873 14.3139 40.1046 14.494 40.3C14.6976 40.5209 14.9771 40.6762 15.5362 40.9868L29.3496 48.6609C29.879 48.955 30.1437 49.1021 30.424 49.1597C30.6721 49.2107 30.928 49.2107 31.1761 49.1597C31.4564 49.1021 31.7211 48.955 32.2505 48.6609L46.0638 40.9868C46.6229 40.6762 46.9025 40.5209 47.1061 40.3C47.2861 40.1046 47.4224 39.873 47.5058 39.6206C47.6 39.3354 47.6 39.0156 47.6 38.376Z" stroke="#1E579F" stroke-width="2" stroke-linecap="round" stroke-linejoin="round"/>
<line x1="51.7204" y1="9.69351" x2="10.5204" y2="52.4935" stroke="#1E579F" stroke-width="2"/>
</svg>
