<svg width="63" height="63" viewBox="0 0 63 63" fill="none" xmlns="http://www.w3.org/2000/svg">
<g clip-path="url(#clip0_2924_1600)">
<path d="M52.5 32.8125V17.85C52.5 13.4396 52.5 11.2344 51.6417 9.54982C50.8867 8.06805 49.682 6.86333 48.2002 6.10832C46.5156 5.25 44.3104 5.25 39.9 5.25H23.1C18.6896 5.25 16.4844 5.25 14.7998 6.10832C13.318 6.86333 12.1133 8.06805 11.3583 9.54982C10.5 11.2344 10.5 13.4396 10.5 17.85V45.15C10.5 49.5604 10.5 51.7656 11.3583 53.4502C12.1133 54.932 13.318 56.1367 14.7998 56.8917C16.4844 57.75 18.6896 57.75 23.1 57.75H31.5M41.75 28.875H26M31.25 39.375H26M47 18.375H26" stroke="#1E579F" stroke-width="2" stroke-linecap="round" stroke-linejoin="round"/>
<path d="M58.1875 42.0069L46.5 48.5M46.5 48.5L34.8125 42.0069M46.5 48.5L46.5 61.5625M58.875 54.0805V42.9195C58.875 42.4483 58.875 42.2128 58.8056 42.0027C58.7442 41.8168 58.6438 41.6462 58.5111 41.5023C58.3612 41.3395 58.1553 41.2251 57.7434 40.9963L47.5684 35.3436C47.1785 35.1269 46.9835 35.0186 46.777 34.9761C46.5942 34.9385 46.4058 34.9385 46.223 34.9761C46.0165 35.0186 45.8215 35.1269 45.4316 35.3436L35.2566 40.9963C34.8447 41.2251 34.6388 41.3395 34.4889 41.5023C34.3562 41.6462 34.2558 41.8168 34.1944 42.0027C34.125 42.2128 34.125 42.4483 34.125 42.9195V54.0805C34.125 54.5516 34.125 54.7872 34.1944 54.9973C34.2558 55.1832 34.3562 55.3538 34.4889 55.4977C34.6388 55.6604 34.8447 55.7748 35.2566 56.0037L45.4316 61.6564C45.8215 61.8731 46.0165 61.9814 46.223 62.0239C46.4058 62.0614 46.5942 62.0614 46.777 62.0239C46.9835 61.9814 47.1785 61.8731 47.5684 61.6564L57.7434 56.0037C58.1553 55.7748 58.3612 55.6604 58.5111 55.4977C58.6438 55.3538 58.7442 55.1832 58.8056 54.9973C58.875 54.7872 58.875 54.5516 58.875 54.0805Z" stroke="#1E579F" stroke-width="2" stroke-linecap="round" stroke-linejoin="round"/>
<path d="M16 17.5L18 19.5L22.5 15" stroke="#1E579F" stroke-width="2" stroke-linecap="round" stroke-linejoin="round"/>
<path d="M16 27.5L18 29.5L22.5 25" stroke="#1E579F" stroke-width="2" stroke-linecap="round" stroke-linejoin="round"/>
<path d="M16 40.5L18 42.5L22.5 38" stroke="#1E579F" stroke-width="2" stroke-linecap="round" stroke-linejoin="round"/>
</g>
<defs>
<clipPath id="clip0_2924_1600">
<rect width="63" height="63" fill="white"/>
</clipPath>
</defs>
</svg>
