<svg width="17" height="20" viewBox="0 0 17 20" fill="none" xmlns="http://www.w3.org/2000/svg">
<path fill-rule="evenodd" clip-rule="evenodd" d="M14.4509 5.83347C14.4509 2.61169 11.7869 0 8.50086 0C5.21477 0 2.55078 2.6116 2.55078 5.83347V10.8335H4.25088V5.83347C4.25088 3.53227 6.15357 1.66669 8.50077 1.66669C10.848 1.66669 12.7507 3.53227 12.7507 5.83347V10.8335H14.4508L14.4509 5.83347Z" fill="#ACACAC"/>
<path fill-rule="evenodd" clip-rule="evenodd" d="M0 10.0045V18.3281C0 19.2513 0.763624 19.9996 1.69227 19.9996H15.3077C16.2423 19.9996 17 19.252 17 18.3281V10.0045C17 9.08126 16.2364 8.33301 15.3077 8.33301H1.69227C0.75775 8.33301 0 9.08042 0 10.0045Z" fill="#ACACAC"/>
</svg>
